<svg version="1.1" id="Layer_1" xmlns="http://www.w3.org/2000/svg" xmlns:xlink="http://www.w3.org/1999/xlink" x="0px" y="0px"
	 width="100%" viewBox="0 0 1024 1024" enable-background="new 0 0 1024 1024" xml:space="preserve">
<path fill="#000000" opacity="1.000000" stroke="none" 
	d="
M668.000000,1025.000000 
	C445.333344,1025.000000 223.166672,1025.000000 1.000000,1025.000000 
	C1.000000,683.666687 1.000000,342.333344 1.000000,1.000000 
	C342.333344,1.000000 683.666687,1.000000 1025.000000,1.000000 
	C1025.000000,342.333344 1025.000000,683.666687 1025.000000,1025.000000 
	C906.166687,1025.000000 787.333313,1025.000000 668.000000,1025.000000 
M521.909485,654.927673 
	C533.274170,654.842468 544.638855,654.757263 556.920166,654.875977 
	C564.946533,654.226807 573.317078,656.959106 581.193237,652.961792 
	C580.369751,650.441101 579.835876,648.424866 579.062256,646.505127 
	C575.739075,638.258118 572.445496,629.995972 568.900940,621.843750 
	C568.098022,619.996887 566.334473,618.567627 564.998108,616.998840 
	C564.998108,616.998840 565.051331,616.985840 564.651184,616.246887 
	C559.902100,615.837036 555.155518,615.111084 550.403564,615.074341 
	C533.715942,614.945190 517.026550,615.066772 500.337830,615.067139 
	C486.335083,615.067444 472.330688,614.923706 458.331512,615.137817 
	C456.428192,615.166992 453.780823,616.422180 452.820496,617.952271 
	C450.759186,621.236755 449.559937,625.065308 448.033142,628.681702 
	C442.143829,642.631531 436.189789,656.554810 430.417786,670.553040 
	C428.062042,676.266174 426.109100,682.145325 423.344482,688.305542 
	C421.267059,693.290161 418.829132,698.161865 417.220886,703.293518 
	C415.816040,707.776367 413.135864,709.114197 408.794922,709.074036 
	C396.827454,708.963257 384.857635,709.124390 372.889404,709.061157 
	C371.014954,709.051270 369.143707,708.430542 366.897491,708.024780 
	C378.340088,681.340698 389.575867,655.138916 400.953705,628.150879 
	C401.865509,625.784119 402.774109,623.416077 403.689758,621.050781 
	C405.211975,617.118774 403.864868,614.974365 399.712280,614.967834 
	C390.575836,614.953491 381.439178,615.008057 372.302765,615.064453 
	C363.488434,615.118896 361.428070,616.468628 358.263428,624.204529 
	C353.134644,636.741699 348.017944,649.283813 342.213135,662.143555 
	C342.205383,662.883545 342.197632,663.623474 342.114624,664.507629 
	C342.114624,664.507629 342.140778,664.668152 341.512512,665.140564 
	C341.175140,665.701538 340.764618,666.231384 340.511017,666.828003 
	C332.802307,684.964539 325.084137,703.097168 317.427032,721.255554 
	C314.825500,727.424927 312.221466,733.602234 309.918915,739.885986 
	C307.970245,745.204102 308.665192,746.063721 314.140747,746.062927 
	C325.804138,746.061340 337.467468,745.965027 349.130890,745.957581 
	C376.789734,745.940002 404.448608,745.935974 432.107452,745.962097 
	C439.218781,745.968811 443.878967,743.198547 446.618134,736.118591 
	C452.395233,721.186462 458.911743,706.541321 465.071838,691.756287 
	C469.410522,681.342773 473.977386,671.006104 477.788818,660.400330 
	C479.211639,656.441101 480.916443,654.600220 485.043915,654.684265 
	C491.698303,654.819885 498.356934,654.745544 505.934937,654.920898 
	C510.948700,654.883667 515.962463,654.846497 521.909485,654.927673 
M661.110107,511.812653 
	C661.092407,513.790588 660.940491,515.778564 661.086914,517.744202 
	C661.334229,521.063110 662.635559,523.273804 666.582275,523.041626 
	C670.194641,522.829041 673.870544,523.359863 677.440735,522.924866 
	C678.991272,522.735962 680.346924,520.948181 681.921936,518.977844 
	C681.928711,515.215088 682.052246,511.446320 681.858093,507.693939 
	C681.810852,506.780518 680.719482,505.921112 679.915894,504.196564 
	C674.080200,503.629272 668.244507,503.061981 662.221191,502.476471 
	C662.075745,505.657379 661.978821,507.776550 661.383728,510.017822 
	C661.302246,510.311951 661.220764,510.606049 661.110107,511.812653 
M696.176880,539.322571 
	C696.108215,542.954285 695.890320,546.591003 696.011230,550.216370 
	C696.143372,554.176697 696.589172,558.126526 697.437744,562.764343 
	C703.393982,562.836304 709.350159,562.954529 715.306458,562.961731 
	C718.516479,562.965637 720.086304,561.316406 720.032532,558.013062 
	C719.954407,553.211243 720.054504,548.406860 720.026978,543.603882 
	C720.009644,540.581055 718.962158,538.779480 715.395752,538.927124 
	C709.278320,539.180359 703.145325,539.059326 696.176880,539.322571 
M701.780029,744.366943 
	C698.146118,735.213318 694.764099,725.949768 690.825134,716.929321 
	C682.949951,698.895020 674.619446,681.059387 666.762634,663.017273 
	C660.404846,648.417542 654.628967,633.564575 648.291748,618.955505 
	C642.720764,606.113098 636.579285,593.518982 630.957031,580.697998 
	C621.454346,559.027954 612.170898,537.261963 602.780212,515.542786 
	C591.446167,489.329132 580.012939,463.158020 568.784058,436.899414 
	C561.836853,420.653442 555.440674,404.169098 548.342163,387.991333 
	C540.381531,369.848846 531.874634,351.946503 523.728638,333.884064 
	C523.153259,332.608307 523.104309,330.673065 523.634705,329.383423 
	C532.918335,306.811157 542.371033,284.308502 551.690674,261.750946 
	C554.534424,254.867737 557.089478,247.865219 560.186279,239.858536 
	C547.915405,239.858536 537.252869,239.737183 526.596069,239.931366 
	C523.337280,239.990753 519.905396,239.690414 518.155762,244.134293 
	C511.635559,260.695038 504.797974,277.132843 497.925964,293.552551 
	C487.232452,319.103394 476.412292,344.601227 465.647949,370.122375 
	C452.021027,402.430389 438.433777,434.755249 424.748932,467.038696 
	C420.343048,477.432526 415.552612,487.663727 411.171448,498.067627 
	C405.761719,510.914185 400.711487,523.912231 395.294098,536.755432 
	C388.791260,552.171936 382.065216,567.494263 375.061066,583.725830 
	C377.374176,583.725830 379.414551,583.902405 381.414307,583.692383 
	C387.208038,583.083862 392.985565,582.320801 398.769257,581.616882 
	C403.438721,581.048523 408.096893,580.349670 412.780548,579.947021 
	C416.910248,579.591980 419.301056,577.350952 420.849060,573.712769 
	C426.933624,559.412537 433.036346,545.119690 439.213837,530.859436 
	C451.628326,502.201508 464.272125,473.641418 476.480835,444.896362 
	C484.744537,425.439697 492.427307,405.736237 500.370087,386.143250 
	C500.888214,384.865173 501.408234,383.587860 502.298676,381.396393 
	C550.024414,491.274109 597.295044,600.104065 645.051636,710.052795 
	C628.973450,710.052795 614.212830,710.123962 599.453369,710.028625 
	C589.067078,709.961548 578.682068,709.679077 568.296936,709.471985 
	C561.330933,709.333069 554.359009,709.295227 547.401794,708.960693 
	C540.165833,708.612671 538.770081,710.599060 541.752441,717.229004 
	C545.154480,724.791748 548.886292,732.256958 551.560364,740.077209 
	C553.149231,744.724060 555.516235,745.787659 559.977356,745.776611 
	C605.950317,745.662354 651.923645,745.728088 697.896912,745.702515 
	C699.000671,745.701904 700.104126,745.224731 701.780029,744.366943 
M384.830353,322.081818 
	C388.718781,320.331329 392.701721,318.758392 396.457550,316.758789 
	C398.470154,315.687256 401.501068,314.013092 401.652954,312.385193 
	C402.425201,304.108276 402.465027,295.758667 402.627289,287.431915 
	C402.674835,284.991486 402.282837,282.542480 402.045258,279.493988 
	C355.482666,299.805908 309.726807,319.765900 264.419464,339.530243 
	C264.419464,346.457428 264.722015,352.620911 264.347839,358.743042 
	C263.800842,367.692322 265.423462,374.895752 275.880920,376.604584 
	C276.504333,376.706482 277.066376,377.172821 277.661560,377.459991 
	C289.471100,383.157562 301.188446,389.056763 313.110535,394.508240 
	C338.699158,406.208710 364.401794,417.659668 390.038147,429.256104 
	C395.804443,431.864471 396.752136,431.392822 396.724854,424.978760 
	C396.694427,417.828217 395.930664,410.644653 396.415863,403.538940 
	C396.836456,397.378845 394.315613,393.997223 389.092590,391.565216 
	C371.176270,383.222748 353.312103,374.767822 335.458618,366.291321 
	C328.384583,362.932739 321.390686,359.405304 312.931152,355.253296 
	C337.644623,343.875977 360.903442,333.168335 384.830353,322.081818 
M725.372253,381.604584 
	C731.106018,379.224609 736.934814,377.041626 742.518372,374.349976 
	C744.296265,373.492920 746.581787,371.334595 746.654053,369.684937 
	C747.055298,360.524261 746.846558,351.336884 746.846558,342.166687 
	C701.419189,320.978882 656.168701,299.873566 610.557495,278.600006 
	C609.986267,280.304596 609.315430,281.449738 609.254517,282.626465 
	C608.842529,290.576599 608.643372,298.537994 608.206360,306.486481 
	C607.900208,312.053864 610.908447,315.301208 615.490234,317.482666 
	C620.966736,320.090210 626.545654,322.482544 632.021179,325.091980 
	C650.750366,334.017639 669.467590,342.968719 688.148254,351.995239 
	C690.366028,353.066864 692.329773,354.664337 694.411255,356.018066 
	C692.363464,357.479279 690.486511,359.311768 688.241638,360.344635 
	C664.320801,371.350983 640.377869,382.311371 616.339539,393.057648 
	C612.734070,394.669434 611.272705,397.063538 611.338867,400.587891 
	C611.462280,407.160339 611.955750,413.726288 612.054993,420.298553 
	C612.204712,430.209900 612.116699,430.210144 621.382446,426.961884 
	C622.541748,426.555450 623.752136,426.264221 624.862793,425.754059 
	C633.697327,421.695770 642.442749,417.435577 651.348816,413.542450 
	C675.738098,402.881195 700.192749,392.369232 725.372253,381.604584 
M726.046570,622.759705 
	C726.785156,617.991577 724.431213,615.970032 719.935547,616.136658 
	C713.737976,616.366272 707.546387,616.755493 701.013550,617.093933 
	C701.013550,624.262756 700.941956,630.891907 701.042725,637.518494 
	C701.095642,641.002502 702.972595,643.013000 706.564270,643.038635 
	C711.389771,643.072998 716.216125,642.981262 721.041992,642.990295 
	C724.631653,642.996948 726.054993,641.136841 726.007080,637.686768 
	C725.942383,633.028259 726.026245,628.367615 726.046570,622.759705 
M752.834351,581.085693 
	C746.703125,581.472046 746.019714,582.165222 745.983521,588.080994 
	C745.964172,591.243225 745.893921,594.407349 745.975830,597.567322 
	C746.039490,600.022583 746.631897,602.030884 749.805786,602.124146 
	C754.722595,602.268555 759.659729,603.102966 764.534546,602.794861 
	C767.599609,602.601074 770.393616,600.853027 770.025391,596.679199 
	C769.763428,593.709595 769.761841,590.674194 770.052673,587.708313 
	C770.525574,582.886536 767.810547,581.252319 763.740417,581.022949 
	C760.425110,580.835999 757.089294,581.013550 752.834351,581.085693 
M760.681763,650.738892 
	C755.442200,650.497131 750.198242,650.323486 744.964905,649.985474 
	C742.261902,649.810791 740.938782,650.699890 740.982849,653.581116 
	C741.069153,659.234680 740.920898,664.891724 740.999573,670.545532 
	C741.057617,674.716553 743.524048,676.256653 747.437988,675.957581 
	C751.686646,675.632996 755.974304,674.793091 760.173706,675.113159 
	C765.121826,675.490234 765.681458,672.255432 765.876770,669.063965 
	C766.151367,664.576050 765.967468,660.019775 765.498657,655.543091 
	C765.254639,653.213135 765.178406,650.031799 760.681763,650.738892 
M749.969421,514.318115 
	C749.992554,511.668365 749.907837,509.012115 750.066772,506.370514 
	C750.253235,503.270569 749.208618,501.757233 745.839783,501.909698 
	C741.211060,502.119202 736.564636,502.107849 731.931335,501.983978 
	C728.916321,501.903442 727.792542,503.064789 727.967773,506.093475 
	C728.168152,509.558167 727.856445,513.050110 727.989197,516.521729 
	C728.124634,520.067139 729.525391,522.407837 733.712769,522.077209 
	C736.838562,521.830444 739.998108,522.014587 743.142639,522.000610 
	C749.367126,521.972900 749.957642,521.386719 749.969421,514.318115 
z"/>
<path fill="#FAFAFA" opacity="1.000000" stroke="none" 
	d="
M701.493896,744.668396 
	C700.104126,745.224731 699.000671,745.701904 697.896912,745.702515 
	C651.923645,745.728088 605.950317,745.662354 559.977356,745.776611 
	C555.516235,745.787659 553.149231,744.724060 551.560364,740.077209 
	C548.886292,732.256958 545.154480,724.791748 541.752441,717.229004 
	C538.770081,710.599060 540.165833,708.612671 547.401794,708.960693 
	C554.359009,709.295227 561.330933,709.333069 568.296936,709.471985 
	C578.682068,709.679077 589.067078,709.961548 599.453369,710.028625 
	C614.212830,710.123962 628.973450,710.052795 645.051636,710.052795 
	C597.295044,600.104065 550.024414,491.274109 502.298676,381.396393 
	C501.408234,383.587860 500.888214,384.865173 500.370087,386.143250 
	C492.427307,405.736237 484.744537,425.439697 476.480835,444.896362 
	C464.272125,473.641418 451.628326,502.201508 439.213837,530.859436 
	C433.036346,545.119690 426.933624,559.412537 420.849060,573.712769 
	C419.301056,577.350952 416.910248,579.591980 412.780548,579.947021 
	C408.096893,580.349670 403.438721,581.048523 398.769257,581.616882 
	C392.985565,582.320801 387.208038,583.083862 381.414307,583.692383 
	C379.414551,583.902405 377.374176,583.725830 375.061066,583.725830 
	C382.065216,567.494263 388.791260,552.171936 395.294098,536.755432 
	C400.711487,523.912231 405.761719,510.914185 411.171448,498.067627 
	C415.552612,487.663727 420.343048,477.432526 424.748932,467.038696 
	C438.433777,434.755249 452.021027,402.430389 465.647949,370.122375 
	C476.412292,344.601227 487.232452,319.103394 497.925964,293.552551 
	C504.797974,277.132843 511.635559,260.695038 518.155762,244.134293 
	C519.905396,239.690414 523.337280,239.990753 526.596069,239.931366 
	C537.252869,239.737183 547.915405,239.858536 560.186279,239.858536 
	C557.089478,247.865219 554.534424,254.867737 551.690674,261.750946 
	C542.371033,284.308502 532.918335,306.811157 523.634705,329.383423 
	C523.104309,330.673065 523.153259,332.608307 523.728638,333.884064 
	C531.874634,351.946503 540.381531,369.848846 548.342163,387.991333 
	C555.440674,404.169098 561.836853,420.653442 568.784058,436.899414 
	C580.012939,463.158020 591.446167,489.329132 602.780212,515.542786 
	C612.170898,537.261963 621.454346,559.027954 630.957031,580.697998 
	C636.579285,593.518982 642.720764,606.113098 648.291748,618.955505 
	C654.628967,633.564575 660.404846,648.417542 666.762634,663.017273 
	C674.619446,681.059387 682.949951,698.895020 690.825134,716.929321 
	C694.764099,725.949768 698.146118,735.213318 701.493896,744.668396 
z"/>
<path fill="#0AADEC" opacity="1.000000" stroke="none" 
	d="
M342.140778,664.668152 
	C342.140778,664.668152 342.114624,664.507629 342.369568,664.287231 
	C342.759094,663.760498 342.893707,663.454041 343.382050,663.079712 
	C344.267975,662.407349 345.004333,661.889038 345.301544,661.185303 
	C349.295197,651.730286 352.982147,642.137756 357.227295,632.798523 
	C365.470795,614.663147 360.971527,617.094971 380.243744,617.019531 
	C387.303284,616.991882 394.363007,617.015076 401.868225,617.015076 
	C401.112122,620.181641 400.543365,622.563721 399.704407,625.166443 
	C395.718109,634.096558 391.993683,642.802429 388.287567,651.516113 
	C380.611511,669.563660 372.939178,687.612793 365.280243,705.667603 
	C363.936127,708.836121 363.851318,711.082092 368.451324,711.040405 
	C382.778839,710.910461 397.109711,711.081238 411.434906,710.856079 
	C413.261993,710.827332 416.036530,709.594727 416.706940,708.148071 
	C419.549225,702.014893 421.763153,695.590515 424.521179,689.120239 
	C425.163239,688.604309 425.621643,688.295288 425.799561,687.869202 
	C434.829620,666.239746 443.979828,644.658203 452.725616,622.914062 
	C454.524780,618.440979 456.840179,616.876770 461.563660,616.898926 
	C496.058960,617.060791 530.555298,616.985901 565.051331,616.985840 
	C565.051331,616.985840 564.998108,616.998840 564.979370,617.359741 
	C569.279419,628.863037 573.598206,640.005432 578.388550,652.364319 
	C570.401428,652.364319 563.211487,652.364319 555.557739,652.267944 
	C547.624512,652.146667 540.153687,652.027344 532.686157,652.135193 
	C528.767517,652.191772 524.854492,652.646240 520.525940,652.906250 
	C515.077576,652.902100 510.042267,652.912659 504.555664,652.915894 
	C501.394714,652.906189 498.685059,652.903931 495.803894,652.704590 
	C495.140259,652.454956 494.648102,652.402283 493.686951,652.283386 
	C490.055511,652.179443 486.887390,652.246826 483.732178,652.076294 
	C480.205322,651.885620 478.239410,653.572327 476.937195,656.712769 
	C465.933502,683.248962 454.887451,709.767639 443.787292,736.263611 
	C442.186279,740.085327 439.895996,743.142273 435.020630,743.151428 
	C431.226593,743.158508 427.434174,743.959106 423.640045,743.967834 
	C388.508179,744.049011 353.376099,744.034729 318.244080,744.047974 
	C316.302704,744.048767 314.361359,744.048096 310.988281,744.048096 
	C313.039215,738.395264 314.503937,733.743408 316.388763,729.268494 
	C324.958252,708.923157 333.666748,688.636475 342.229858,668.288513 
	C342.656830,667.273926 342.190918,665.883545 342.140778,664.668152 
z"/>
<path fill="#F9F9F9" opacity="1.000000" stroke="none" 
	d="
M384.496307,322.271271 
	C360.903442,333.168335 337.644623,343.875977 312.931152,355.253296 
	C321.390686,359.405304 328.384583,362.932739 335.458618,366.291321 
	C353.312103,374.767822 371.176270,383.222748 389.092590,391.565216 
	C394.315613,393.997223 396.836456,397.378845 396.415863,403.538940 
	C395.930664,410.644653 396.694427,417.828217 396.724854,424.978760 
	C396.752136,431.392822 395.804443,431.864471 390.038147,429.256104 
	C364.401794,417.659668 338.699158,406.208710 313.110535,394.508240 
	C301.188446,389.056763 289.471100,383.157562 277.661560,377.459991 
	C277.066376,377.172821 276.504333,376.706482 275.880920,376.604584 
	C265.423462,374.895752 263.800842,367.692322 264.347839,358.743042 
	C264.722015,352.620911 264.419464,346.457428 264.419464,339.530243 
	C309.726807,319.765900 355.482666,299.805908 402.045258,279.493988 
	C402.282837,282.542480 402.674835,284.991486 402.627289,287.431915 
	C402.465027,295.758667 402.425201,304.108276 401.652954,312.385193 
	C401.501068,314.013092 398.470154,315.687256 396.457550,316.758789 
	C392.701721,318.758392 388.718781,320.331329 384.496307,322.271271 
z"/>
<path fill="#FAFAFA" opacity="1.000000" stroke="none" 
	d="
M724.996826,381.701355 
	C700.192749,392.369232 675.738098,402.881195 651.348816,413.542450 
	C642.442749,417.435577 633.697327,421.695770 624.862793,425.754059 
	C623.752136,426.264221 622.541748,426.555450 621.382446,426.961884 
	C612.116699,430.210144 612.204712,430.209900 612.054993,420.298553 
	C611.955750,413.726288 611.462280,407.160339 611.338867,400.587891 
	C611.272705,397.063538 612.734070,394.669434 616.339539,393.057648 
	C640.377869,382.311371 664.320801,371.350983 688.241638,360.344635 
	C690.486511,359.311768 692.363464,357.479279 694.411255,356.018066 
	C692.329773,354.664337 690.366028,353.066864 688.148254,351.995239 
	C669.467590,342.968719 650.750366,334.017639 632.021179,325.091980 
	C626.545654,322.482544 620.966736,320.090210 615.490234,317.482666 
	C610.908447,315.301208 607.900208,312.053864 608.206360,306.486481 
	C608.643372,298.537994 608.842529,290.576599 609.254517,282.626465 
	C609.315430,281.449738 609.986267,280.304596 610.557495,278.600006 
	C656.168701,299.873566 701.419189,320.978882 746.846558,342.166687 
	C746.846558,351.336884 747.055298,360.524261 746.654053,369.684937 
	C746.581787,371.334595 744.296265,373.492920 742.518372,374.349976 
	C736.934814,377.041626 731.106018,379.224609 724.996826,381.701355 
z"/>
<path fill="#4891AD" opacity="1.000000" stroke="none" 
	d="
M341.826660,664.904358 
	C342.190918,665.883545 342.656830,667.273926 342.229858,668.288513 
	C333.666748,688.636475 324.958252,708.923157 316.388763,729.268494 
	C314.503937,733.743408 313.039215,738.395264 310.988281,744.048096 
	C314.361359,744.048096 316.302704,744.048767 318.244080,744.047974 
	C353.376099,744.034729 388.508179,744.049011 423.640045,743.967834 
	C427.434174,743.959106 431.226593,743.158508 435.020630,743.151428 
	C439.895996,743.142273 442.186279,740.085327 443.787292,736.263611 
	C454.887451,709.767639 465.933502,683.248962 476.937195,656.712769 
	C478.239410,653.572327 480.205322,651.885620 483.732178,652.076294 
	C486.887390,652.246826 490.055511,652.179443 493.864685,652.447388 
	C494.999451,652.752319 495.487427,652.826965 495.975403,652.901611 
	C498.685059,652.903931 501.394714,652.906189 504.559296,653.222656 
	C505.014099,653.944519 505.013947,654.352173 505.013794,654.759888 
	C498.356934,654.745544 491.698303,654.819885 485.043915,654.684265 
	C480.916443,654.600220 479.211639,656.441101 477.788818,660.400330 
	C473.977386,671.006104 469.410522,681.342773 465.071838,691.756287 
	C458.911743,706.541321 452.395233,721.186462 446.618134,736.118591 
	C443.878967,743.198547 439.218781,745.968811 432.107452,745.962097 
	C404.448608,745.935974 376.789734,745.940002 349.130890,745.957581 
	C337.467468,745.965027 325.804138,746.061340 314.140747,746.062927 
	C308.665192,746.063721 307.970245,745.204102 309.918915,739.885986 
	C312.221466,733.602234 314.825500,727.424927 317.427032,721.255554 
	C325.084137,703.097168 332.802307,684.964539 340.511017,666.828003 
	C340.764618,666.231384 341.175140,665.701538 341.826660,664.904358 
z"/>
<path fill="#0AADEC" opacity="1.000000" stroke="none" 
	d="
M696.898193,562.080933 
	C696.589172,558.126526 696.143372,554.176697 696.011230,550.216370 
	C695.890320,546.591003 696.108215,542.954285 696.874878,539.524292 
	C701.877075,539.840637 706.180786,540.027039 710.485535,540.054565 
	C718.731812,540.107422 718.697937,540.067383 718.075500,548.231628 
	C717.911682,550.380249 717.817566,552.574768 718.062378,554.705627 
	C718.605896,559.436035 716.853149,561.207886 711.945862,561.041260 
	C706.947571,560.871460 701.915466,561.693298 696.898193,562.080933 
z"/>
<path fill="#4891AD" opacity="1.000000" stroke="none" 
	d="
M424.206665,689.272522 
	C421.763153,695.590515 419.549225,702.014893 416.706940,708.148071 
	C416.036530,709.594727 413.261993,710.827332 411.434906,710.856079 
	C397.109711,711.081238 382.778839,710.910461 368.451324,711.040405 
	C363.851318,711.082092 363.936127,708.836121 365.280243,705.667603 
	C372.939178,687.612793 380.611511,669.563660 388.287567,651.516113 
	C391.993683,642.802429 395.718109,634.096558 399.709290,625.524658 
	C400.260101,626.753845 400.535889,627.845520 400.811646,628.937134 
	C389.575867,655.138916 378.340088,681.340698 366.897491,708.024780 
	C369.143707,708.430542 371.014954,709.051270 372.889404,709.061157 
	C384.857635,709.124390 396.827454,708.963257 408.794922,709.074036 
	C413.135864,709.114197 415.816040,707.776367 417.220886,703.293518 
	C418.829132,698.161865 421.267059,693.290161 423.708557,688.459656 
	C424.117310,688.833313 424.161987,689.052917 424.206665,689.272522 
z"/>
<path fill="#56A4C3" opacity="1.000000" stroke="none" 
	d="
M424.521179,689.120239 
	C424.161987,689.052917 424.117310,688.833313 424.022766,688.281372 
	C426.109100,682.145325 428.062042,676.266174 430.417786,670.553040 
	C436.189789,656.554810 442.143829,642.631531 448.033142,628.681702 
	C449.559937,625.065308 450.759186,621.236755 452.820496,617.952271 
	C453.780823,616.422180 456.428192,615.166992 458.331512,615.137817 
	C472.330688,614.923706 486.335083,615.067444 500.337830,615.067139 
	C517.026550,615.066772 533.715942,614.945190 550.403564,615.074341 
	C555.155518,615.111084 559.902100,615.837036 564.851257,616.616333 
	C530.555298,616.985901 496.058960,617.060791 461.563660,616.898926 
	C456.840179,616.876770 454.524780,618.440979 452.725616,622.914062 
	C443.979828,644.658203 434.829620,666.239746 425.799561,687.869202 
	C425.621643,688.295288 425.163239,688.604309 424.521179,689.120239 
z"/>
<path fill="#0AADEC" opacity="1.000000" stroke="none" 
	d="
M680.108093,505.036896 
	C680.719482,505.921112 681.810852,506.780518 681.858093,507.693939 
	C682.052246,511.446320 681.928711,515.215088 681.455627,519.509277 
	C675.186951,520.438477 669.384583,520.836304 663.924683,521.210632 
	C662.808594,517.079468 661.973877,513.989807 661.139160,510.900146 
	C661.220764,510.606049 661.302246,510.311951 661.962891,509.783020 
	C663.270508,506.787079 663.148376,503.487610 667.783203,504.211884 
	C671.835571,504.845123 675.995605,504.788635 680.108093,505.036896 
z"/>
<path fill="#56A4C3" opacity="1.000000" stroke="none" 
	d="
M400.882690,628.544006 
	C400.535889,627.845520 400.260101,626.753845 399.979462,625.303955 
	C400.543365,622.563721 401.112122,620.181641 401.868225,617.015076 
	C394.363007,617.015076 387.303284,616.991882 380.243744,617.019531 
	C360.971527,617.094971 365.470795,614.663147 357.227295,632.798523 
	C352.982147,642.137756 349.295197,651.730286 345.301544,661.185303 
	C345.004333,661.889038 344.267975,662.407349 343.336853,662.748657 
	C342.924011,662.264954 342.910095,662.044373 342.896179,661.823853 
	C348.017944,649.283813 353.134644,636.741699 358.263428,624.204529 
	C361.428070,616.468628 363.488434,615.118896 372.302765,615.064453 
	C381.439178,615.008057 390.575836,614.953491 399.712280,614.967834 
	C403.864868,614.974365 405.211975,617.118774 403.689758,621.050781 
	C402.774109,623.416077 401.865509,625.784119 400.882690,628.544006 
z"/>
<path fill="#56A4C3" opacity="1.000000" stroke="none" 
	d="
M726.046509,623.233765 
	C726.026245,628.367615 725.942383,633.028259 726.007080,637.686768 
	C726.054993,641.136841 724.631653,642.996948 721.041992,642.990295 
	C716.216125,642.981262 711.389771,643.072998 706.564270,643.038635 
	C702.972595,643.013000 701.095642,641.002502 701.042725,637.518494 
	C700.941956,630.891907 701.013550,624.262756 701.013550,617.093933 
	C707.546387,616.755493 713.737976,616.366272 719.935547,616.136658 
	C724.431213,615.970032 726.785156,617.991577 726.046509,623.233765 
M719.329102,640.095215 
	C723.056519,640.627686 724.310730,638.978210 724.105835,635.311096 
	C723.856689,630.850342 724.000916,626.361511 724.120178,621.888672 
	C724.189758,619.276306 723.467163,617.846252 720.501892,617.950134 
	C716.031921,618.106628 711.550537,618.056335 707.077087,617.956726 
	C704.095398,617.890381 702.888672,619.222534 702.944702,622.148438 
	C703.036865,626.953857 703.049927,631.763855 702.946533,636.568665 
	C702.892090,639.098694 703.848083,640.192322 706.430969,640.121582 
	C710.406311,640.012573 714.386780,640.095154 719.329102,640.095215 
z"/>
<path fill="#56A4C3" opacity="1.000000" stroke="none" 
	d="
M753.298462,581.057556 
	C757.089294,581.013550 760.425110,580.835999 763.740417,581.022949 
	C767.810547,581.252319 770.525574,582.886536 770.052673,587.708313 
	C769.761841,590.674194 769.763428,593.709595 770.025391,596.679199 
	C770.393616,600.853027 767.599609,602.601074 764.534546,602.794861 
	C759.659729,603.102966 754.722595,602.268555 749.805786,602.124146 
	C746.631897,602.030884 746.039490,600.022583 745.975830,597.567322 
	C745.893921,594.407349 745.964172,591.243225 745.983521,588.080994 
	C746.019714,582.165222 746.703125,581.472046 753.298462,581.057556 
M767.065674,589.652344 
	C767.003845,583.047302 767.003845,583.045715 760.436523,583.023682 
	C758.612854,583.017517 756.789246,583.022522 754.965576,583.024963 
	C747.960327,583.034424 747.960388,583.034851 747.964722,590.277893 
	C747.970703,600.103516 747.970642,600.103577 757.584778,600.084595 
	C767.052307,600.065918 767.052307,600.065857 767.065674,589.652344 
z"/>
<path fill="#56A4C3" opacity="1.000000" stroke="none" 
	d="
M761.004639,650.466370 
	C765.178406,650.031799 765.254639,653.213135 765.498657,655.543091 
	C765.967468,660.019775 766.151367,664.576050 765.876770,669.063965 
	C765.681458,672.255432 765.121826,675.490234 760.173706,675.113159 
	C755.974304,674.793091 751.686646,675.632996 747.437988,675.957581 
	C743.524048,676.256653 741.057617,674.716553 740.999573,670.545532 
	C740.920898,664.891724 741.069153,659.234680 740.982849,653.581116 
	C740.938782,650.699890 742.261902,649.810791 744.964905,649.985474 
	C750.198242,650.323486 755.442200,650.497131 761.004639,650.466370 
M745.019104,672.805969 
	C747.339722,672.862488 749.660767,672.981934 751.980896,672.965088 
	C764.539062,672.873901 763.046753,674.586487 763.069824,661.844116 
	C763.086792,652.480713 763.045166,652.539062 753.719604,652.690002 
	C751.430359,652.727051 749.119019,651.986572 746.844482,652.106934 
	C745.588806,652.173401 743.321228,653.296692 743.328247,653.923218 
	C743.396973,660.096008 743.847656,666.264526 745.019104,672.805969 
z"/>
<path fill="#56A4C3" opacity="1.000000" stroke="none" 
	d="
M556.021606,652.364319 
	C563.211487,652.364319 570.401428,652.364319 578.388550,652.364319 
	C573.598206,640.005432 569.279419,628.863037 564.986816,617.333374 
	C566.334473,618.567627 568.098022,619.996887 568.900940,621.843750 
	C572.445496,629.995972 575.739075,638.258118 579.062256,646.505127 
	C579.835876,648.424866 580.369751,650.441101 581.193237,652.961792 
	C573.317078,656.959106 564.946533,654.226807 556.478638,654.482117 
	C556.031921,653.513611 556.026733,652.938965 556.021606,652.364319 
z"/>
<path fill="#56A4C3" opacity="1.000000" stroke="none" 
	d="
M749.965820,514.785400 
	C749.957642,521.386719 749.367126,521.972900 743.142639,522.000610 
	C739.998108,522.014587 736.838562,521.830444 733.712769,522.077209 
	C729.525391,522.407837 728.124634,520.067139 727.989197,516.521729 
	C727.856445,513.050110 728.168152,509.558167 727.967773,506.093475 
	C727.792542,503.064789 728.916321,501.903442 731.931335,501.983978 
	C736.564636,502.107849 741.211060,502.119202 745.839783,501.909698 
	C749.208618,501.757233 750.253235,503.270569 750.066772,506.370514 
	C749.907837,509.012115 749.992554,511.668365 749.965820,514.785400 
M729.945190,508.638611 
	C729.943420,510.638489 730.079529,512.650085 729.911133,514.635803 
	C729.562073,518.751343 731.563538,520.013672 735.314148,519.418091 
	C736.295715,519.262268 737.290466,519.084900 738.278381,519.089844 
	C748.859375,519.143372 747.954102,520.560059 748.023438,508.444275 
	C748.039062,505.714539 747.228271,503.282288 744.216980,504.059448 
	C739.490601,505.279205 733.379211,500.362427 729.963501,507.202728 
	C729.896362,507.337097 729.950439,507.531982 729.945190,508.638611 
z"/>
<path fill="#4891AD" opacity="1.000000" stroke="none" 
	d="
M555.557739,652.267944 
	C556.026733,652.938965 556.031921,653.513611 556.020264,654.380188 
	C544.638855,654.757263 533.274170,654.842468 521.442993,654.554077 
	C520.964050,653.760620 520.951477,653.340820 520.938965,652.921021 
	C524.854492,652.646240 528.767517,652.191772 532.686157,652.135193 
	C540.153687,652.027344 547.624512,652.146667 555.557739,652.267944 
z"/>
<path fill="#56A4C3" opacity="1.000000" stroke="none" 
	d="
M697.167969,562.422607 
	C701.915466,561.693298 706.947571,560.871460 711.945862,561.041260 
	C716.853149,561.207886 718.605896,559.436035 718.062378,554.705627 
	C717.817566,552.574768 717.911682,550.380249 718.075500,548.231628 
	C718.697937,540.067383 718.731812,540.107422 710.485535,540.054565 
	C706.180786,540.027039 701.877075,539.840637 697.295898,539.410706 
	C703.145325,539.059326 709.278320,539.180359 715.395752,538.927124 
	C718.962158,538.779480 720.009644,540.581055 720.026978,543.603882 
	C720.054504,548.406860 719.954407,553.211243 720.032532,558.013062 
	C720.086304,561.316406 718.516479,562.965637 715.306458,562.961731 
	C709.350159,562.954529 703.393982,562.836304 697.167969,562.422607 
z"/>
<path fill="#56A4C3" opacity="1.000000" stroke="none" 
	d="
M661.124634,511.356384 
	C661.973877,513.989807 662.808594,517.079468 663.924683,521.210632 
	C669.384583,520.836304 675.186951,520.438477 681.390198,519.963623 
	C680.346924,520.948181 678.991272,522.735962 677.440735,522.924866 
	C673.870544,523.359863 670.194641,522.829041 666.582275,523.041626 
	C662.635559,523.273804 661.334229,521.063110 661.086914,517.744202 
	C660.940491,515.778564 661.092407,513.790588 661.124634,511.356384 
z"/>
<path fill="#56A4C3" opacity="1.000000" stroke="none" 
	d="
M520.525940,652.906250 
	C520.951477,653.340820 520.964050,653.760620 520.976379,654.494873 
	C515.962463,654.846497 510.948700,654.883667 505.474365,654.840393 
	C505.013947,654.352173 505.014099,653.944519 505.010590,653.230042 
	C510.042267,652.912659 515.077576,652.902100 520.525940,652.906250 
z"/>
<path fill="#56A4C3" opacity="1.000000" stroke="none" 
	d="
M680.011963,504.616730 
	C675.995605,504.788635 671.835571,504.845123 667.783203,504.211884 
	C663.148376,503.487610 663.270508,506.787079 662.211975,509.721985 
	C661.978821,507.776550 662.075745,505.657379 662.221191,502.476471 
	C668.244507,503.061981 674.080200,503.629272 680.011963,504.616730 
z"/>
<path fill="#4891AD" opacity="1.000000" stroke="none" 
	d="
M342.554657,661.983704 
	C342.910095,662.044373 342.924011,662.264954 342.983154,662.816528 
	C342.893707,663.454041 342.759094,663.760498 342.407166,664.215210 
	C342.197632,663.623474 342.205383,662.883545 342.554657,661.983704 
z"/>
<path fill="#56A4C3" opacity="1.000000" stroke="none" 
	d="
M495.803894,652.704590 
	C495.487427,652.826965 494.999451,652.752319 494.333740,652.513672 
	C494.648102,652.402283 495.140259,652.454956 495.803894,652.704590 
z"/>
<path fill="#0AADEC" opacity="1.000000" stroke="none" 
	d="
M718.847107,640.095825 
	C714.386780,640.095154 710.406311,640.012573 706.430969,640.121582 
	C703.848083,640.192322 702.892090,639.098694 702.946533,636.568665 
	C703.049927,631.763855 703.036865,626.953857 702.944702,622.148438 
	C702.888672,619.222534 704.095398,617.890381 707.077087,617.956726 
	C711.550537,618.056335 716.031921,618.106628 720.501892,617.950134 
	C723.467163,617.846252 724.189758,619.276306 724.120178,621.888672 
	C724.000916,626.361511 723.856689,630.850342 724.105835,635.311096 
	C724.310730,638.978210 723.056519,640.627686 718.847107,640.095825 
z"/>
<path fill="#0AADEC" opacity="1.000000" stroke="none" 
	d="
M767.065430,590.124695 
	C767.052307,600.065857 767.052307,600.065918 757.584778,600.084595 
	C747.970642,600.103577 747.970703,600.103516 747.964722,590.277893 
	C747.960388,583.034851 747.960327,583.034424 754.965576,583.024963 
	C756.789246,583.022522 758.612854,583.017517 760.436523,583.023682 
	C767.003845,583.045715 767.003845,583.047302 767.065430,590.124695 
z"/>
<path fill="#0AADEC" opacity="1.000000" stroke="none" 
	d="
M744.604553,672.620117 
	C743.847656,666.264526 743.396973,660.096008 743.328247,653.923218 
	C743.321228,653.296692 745.588806,652.173401 746.844482,652.106934 
	C749.119019,651.986572 751.430359,652.727051 753.719604,652.690002 
	C763.045166,652.539062 763.086792,652.480713 763.069824,661.844116 
	C763.046753,674.586487 764.539062,672.873901 751.980896,672.965088 
	C749.660767,672.981934 747.339722,672.862488 744.604553,672.620117 
z"/>
<path fill="#0AADEC" opacity="1.000000" stroke="none" 
	d="
M729.946533,508.168610 
	C729.950439,507.531982 729.896362,507.337097 729.963501,507.202728 
	C733.379211,500.362427 739.490601,505.279205 744.216980,504.059448 
	C747.228271,503.282288 748.039062,505.714539 748.023438,508.444275 
	C747.954102,520.560059 748.859375,519.143372 738.278381,519.089844 
	C737.290466,519.084900 736.295715,519.262268 735.314148,519.418091 
	C731.563538,520.013672 729.562073,518.751343 729.911133,514.635803 
	C730.079529,512.650085 729.943420,510.638489 729.946533,508.168610 
z"/>
</svg>